grf
version=1
nRows=63
nColumns=19
inDegrees=yes
endheader
time	ground_force_1_vx	ground_force_1_vy	ground_force_1_vz	ground_force_1_px	ground_force_1_py	ground_force_1_pz	ground_moment_1_mx	ground_moment_1_my	ground_moment_1_mz	ground_force_2_vx	ground_force_2_vy	ground_force_2_vz	ground_force_2_px	ground_force_2_py	ground_force_2_pz	ground_moment_2_mx	ground_moment_2_my	ground_moment_2_mz
1.930000	12.425966	1488.961914	-481.446106	0.140197	0.000000	-0.783523	0.000000	13.277871	0.000000	-8.542889	1431.173462	480.956207	0.173535	0.000000	-1.581048	0.000000	-10.392686	-0.000000
1.931000	12.704637	1487.827881	-480.842682	0.140458	0.000000	-0.783552	0.000000	13.298034	0.000000	-8.302279	1426.870361	479.910767	0.173262	0.000000	-1.580843	0.000000	-10.585619	-0.000000
1.932000	11.248980	1486.559204	-480.721252	0.140179	0.000000	-0.783257	0.000000	13.597330	0.000000	-8.746086	1437.708740	481.317627	0.172677	0.000000	-1.581226	0.000000	-11.019200	-0.000000
1.933000	12.990153	1494.714233	-481.565186	0.140214	0.000000	-0.785254	0.000000	13.230080	0.000000	-7.778406	1426.389160	480.996460	0.172747	0.000000	-1.580939	0.000000	-10.737700	-0.000000
1.934000	12.141591	1481.265991	-479.513489	0.139879	0.000000	-0.783575	0.000000	13.448895	0.000000	-7.255775	1438.968628	479.749695	0.172646	0.000000	-1.579586	0.000000	-10.752128	-0.000000
1.935000	11.894797	1485.904297	-479.876617	0.140174	0.000000	-0.783862	0.000000	13.568615	0.000000	-7.175434	1430.683838	480.272858	0.172596	0.000000	-1.580448	0.000000	-10.841735	-0.000000
1.936000	12.581240	1489.422974	-477.454041	0.140672	0.000000	-0.783546	-0.000000	12.895587	0.000000	-7.175158	1429.893799	480.151215	0.172754	0.000000	-1.581042	0.000000	-10.642807	-0.000000
1.937000	11.855313	1487.029541	-479.031494	0.139818	0.000000	-0.785079	0.000000	13.701432	0.000000	-8.298967	1433.871460	480.152161	0.172673	0.000000	-1.580673	0.000000	-10.496699	-0.000000
1.938000	12.459365	1479.822510	-479.030090	0.140207	0.000000	-0.782625	0.000000	13.449826	0.000000	-7.457593	1424.624512	479.307312	0.173303	0.000000	-1.579527	0.000000	-10.504237	-0.000000
1.939000	12.176891	1483.016846	-477.742493	0.140378	0.000000	-0.783787	0.000000	13.377329	0.000000	-7.174469	1433.398560	479.910889	0.172421	0.000000	-1.580234	0.000000	-10.796595	-0.000000
1.940000	12.780942	1473.395752	-479.028229	0.140844	0.000000	-0.782071	0.000000	13.096264	0.000000	-5.970180	1429.407837	479.507813	0.172424	0.000000	-1.580617	0.000000	-10.964312	-0.000000
1.941000	11.894797	1479.984253	-478.306671	0.139923	0.000000	-0.782769	0.000000	13.624990	0.000000	-5.645228	1437.853516	479.387024	0.172612	0.000000	-1.579755	0.000000	-10.477920	-0.000000
1.942000	11.489688	1483.486572	-478.064514	0.140621	0.000000	-0.783993	0.000000	13.359408	0.000000	-6.933169	1437.864624	480.110718	0.172940	0.000000	-1.580794	0.000000	-10.447143	-0.000000
1.943000	11.047756	1480.771118	-477.744812	0.140148	0.000000	-0.783453	0.000000	13.605931	0.000000	-7.294014	1437.541626	479.226563	0.172577	0.000000	-1.580217	0.000000	-10.510577	-0.000000
1.944000	11.288083	1474.713135	-477.501953	0.138946	0.000000	-0.781711	-0.000000	14.161134	0.000000	-6.370229	1432.268677	481.519958	0.172574	0.000000	-1.580162	0.000000	-10.831217	-0.000000
1.945000	12.419499	1484.766235	-477.261414	0.140625	0.000000	-0.784559	0.000000	13.303758	0.000000	-7.175986	1428.136841	479.627960	0.172359	0.000000	-1.580666	0.000000	-10.868447	-0.000000
1.946000	11.370854	1484.609375	-477.178772	0.140339	0.000000	-0.784348	0.000000	13.375720	0.000000	-5.485098	1437.696533	479.748779	0.172308	0.000000	-1.579284	0.000000	-10.703415	-0.000000
1.947000	12.257760	1479.795532	-476.817993	0.140668	0.000000	-0.783593	0.000000	13.252668	0.000000	-6.127137	1428.134766	479.547546	0.172234	0.000000	-1.580669	0.000000	-10.556611	-0.000000
1.948000	11.775965	1482.236572	-476.940369	0.139880	0.000000	-0.782802	0.000000	13.609923	0.000000	-7.699996	1441.052124	480.269470	0.172072	0.000000	-1.581098	0.000000	-10.990445	-0.000000
1.949000	11.005990	1478.046753	-476.296997	0.140102	0.000000	-0.783133	0.000000	13.696257	0.000000	-6.289337	1445.511963	478.100830	0.171755	0.000000	-1.581556	0.000000	-10.992293	-0.000000
1.950000	11.132429	1484.611572	-475.049774	0.140589	0.000000	-0.783243	0.000000	13.217983	0.000000	-5.685398	1431.640381	479.426514	0.172477	0.000000	-1.579990	0.000000	-10.476334	-0.000000
1.951000	11.487024	1477.717163	-475.287720	0.140417	0.000000	-0.783243	0.000000	13.507018	0.000000	-5.966731	1433.552124	479.145081	0.172158	0.000000	-1.580321	0.000000	-10.605323	-0.000000
1.952000	12.218657	1486.694336	-476.616699	0.140179	0.000000	-0.785016	-0.000000	13.444686	0.000000	-5.004568	1427.972656	478.138336	0.172335	0.000000	-1.580389	0.000000	-10.722280	-0.000000
1.953000	11.451344	1475.155029	-475.409851	0.140390	0.000000	-0.782836	0.000000	13.378040	0.000000	-5.685675	1428.929810	478.059174	0.172787	0.000000	-1.579904	0.000000	-10.312679	-0.000000
1.954000	12.777519	1469.701782	-475.932922	0.140345	0.000000	-0.782999	0.000000	13.573544	0.000000	-6.490879	1436.260132	478.379700	0.172153	0.000000	-1.580166	0.000000	-10.616993	-0.000000
1.955000	11.933901	1479.177734	-476.013489	0.139905	0.000000	-0.782902	0.000000	13.668625	0.000000	-6.208995	1429.083008	477.054108	0.172598	0.000000	-1.579687	0.000000	-10.453468	-0.000000
1.956000	12.256619	1474.365356	-475.007263	0.139981	0.000000	-0.783118	-0.000000	13.595782	0.000000	-5.766705	1431.316406	477.174683	0.172041	0.000000	-1.579991	0.000000	-10.733460	-0.000000
1.957000	11.651427	1478.355835	-474.886536	0.140604	0.000000	-0.783765	0.000000	13.332006	0.000000	-4.032612	1425.425171	476.692047	0.172238	0.000000	-1.580366	0.000000	-10.070536	-0.000000
1.958000	9.633485	1474.204590	-475.611145	0.139824	0.000000	-0.783275	0.000000	13.837057	0.000000	-5.123563	1430.677734	476.569885	0.171943	0.000000	-1.579548	0.000000	-10.652782	-0.000000
1.959000	12.056917	1478.045410	-475.448608	0.140422	0.000000	-0.783234	0.000000	13.264092	0.000000	-6.088622	1428.133911	477.454651	0.172557	0.000000	-1.580561	0.000000	-10.378065	-0.000000
1.960000	12.217516	1471.164062	-475.048126	0.139772	0.000000	-0.783257	0.000000	13.672315	0.000000	-6.449881	1430.524658	476.088074	0.172310	0.000000	-1.579948	0.000000	-10.429074	-0.000000
1.961000	11.969200	1473.709229	-473.190674	0.140467	0.000000	-0.782739	0.000000	13.317990	0.000000	-5.967282	1431.960327	476.450562	0.172153	0.000000	-1.580299	0.000000	-10.572106	-0.000000
1.962000	14.470459	1479.325806	-472.514893	0.140578	0.000000	-0.783516	0.000000	13.505338	0.000000	-6.571909	1423.985596	476.007080	0.172084	0.000000	-1.580294	0.000000	-10.648603	-0.000000
1.963000	13.637493	1472.270996	-474.323730	0.140294	0.000000	-0.783011	0.000000	13.008882	0.000000	-6.088208	1431.321777	475.525696	0.172164	0.000000	-1.580045	0.000000	-10.575995	-0.000000
1.964000	12.658306	1471.798218	-474.041656	0.140229	0.000000	-0.782978	0.000000	13.524218	0.000000	-6.692146	1422.081299	475.767090	0.172661	0.000000	-1.580426	0.000000	-10.434968	-0.000000
1.965000	12.659067	1476.594727	-473.155457	0.140398	0.000000	-0.784392	0.000000	13.376841	0.000000	-5.487857	1409.807373	475.646393	0.171609	0.000000	-1.579440	0.000000	-11.186735	-0.000000
1.966000	12.293821	1463.780518	-473.802063	0.140469	0.000000	-0.782220	0.000000	13.548536	0.000000	-6.610839	1423.034180	474.761810	0.172198	0.000000	-1.580644	0.000000	-10.531899	-0.000000
1.967000	12.294962	1456.233398	-474.811340	0.140203	0.000000	-0.782885	0.000000	13.786545	0.000000	-5.280383	1422.875366	474.037781	0.172496	0.000000	-1.580115	0.000000	-9.969546	-0.000000
1.968000	12.900536	1474.350342	-473.077454	0.140602	0.000000	-0.784139	0.000000	13.394261	0.000000	-7.375873	1419.531982	474.761505	0.172562	0.000000	-1.580523	0.000000	-10.432410	-0.000000
1.969000	12.496567	1466.820801	-473.399506	0.140402	0.000000	-0.782428	0.000000	13.515952	0.000000	-7.215329	1425.110352	474.319855	0.172823	0.000000	-1.580637	0.000000	-10.398583	-0.000000
1.970000	12.333305	1473.548706	-470.412750	0.140355	0.000000	-0.783741	0.000000	13.220692	0.000000	-7.215329	1416.334717	473.917816	0.171750	0.000000	-1.579338	0.000000	-10.896396	-0.000000
1.971000	12.902057	1468.425415	-472.794189	0.140324	0.000000	-0.783604	0.000000	13.383629	0.000000	-8.702190	1414.102539	474.481323	0.172384	0.000000	-1.581126	0.000000	-10.530571	-0.000000
1.972000	12.332925	1463.123779	-471.949341	0.140392	0.000000	-0.782976	-0.000000	13.543956	0.000000	-7.053957	1418.089722	473.154663	0.172100	0.000000	-1.580303	0.000000	-10.739918	-0.000000
1.973000	13.182248	1466.653442	-472.233063	0.140536	0.000000	-0.783226	0.000000	13.443450	0.000000	-7.536280	1419.532593	474.120117	0.172718	0.000000	-1.580949	0.000000	-10.472674	-0.000000
1.974000	13.224395	1464.567505	-472.273224	0.140572	0.000000	-0.783099	-0.000000	13.344115	0.000000	-6.850897	1415.064453	473.194305	0.172736	0.000000	-1.580812	0.000000	-10.160746	-0.000000
1.975000	14.835706	1465.360718	-473.036591	0.140644	0.000000	-0.783833	0.000000	13.320906	0.000000	-8.462685	1412.829834	472.913818	0.172639	0.000000	-1.580331	0.000000	-10.642922	-0.000000
1.976000	13.382711	1466.489868	-472.676758	0.140445	0.000000	-0.783423	0.000000	13.585189	0.000000	-8.140907	1419.366211	473.033447	0.173005	0.000000	-1.580252	0.000000	-10.377089	-0.000000
1.977000	13.989805	1463.291992	-472.150848	0.140073	0.000000	-0.783283	0.000000	13.527773	0.000000	-8.462685	1410.757812	472.512024	0.172693	0.000000	-1.580004	0.000000	-10.632128	-0.000000
1.978000	12.858008	1457.690430	-472.557434	0.139635	0.000000	-0.783013	0.000000	14.049896	0.000000	-8.222351	1417.454346	472.270203	0.172939	0.000000	-1.580044	0.000000	-10.575888	-0.000000
1.979000	14.519834	1466.016357	-471.829773	0.140398	0.000000	-0.783547	0.000000	13.148505	0.000000	-9.066761	1409.646240	473.075195	0.173153	0.000000	-1.580234	0.000000	-10.544253	-0.000000
1.980000	14.277224	1467.440918	-471.587372	0.140355	0.000000	-0.781517	-0.000000	13.129516	0.000000	-8.946526	1414.107544	469.210510	0.172485	0.000000	-1.580041	0.000000	-10.414832	-0.000000
1.981000	15.695299	1456.731323	-471.750854	0.140032	0.000000	-0.783685	0.000000	13.103050	0.000000	-8.986558	1411.247803	471.787354	0.172996	0.000000	-1.580661	0.000000	-10.518237	-0.000000
1.982000	13.747956	1466.993530	-472.034119	0.139992	0.000000	-0.782726	0.000000	13.721484	0.000000	-8.784878	1415.710571	471.304871	0.173251	0.000000	-1.580352	0.000000	-10.323392	-0.000000
1.983000	13.869452	1459.282837	-472.555298	0.140182	0.000000	-0.783294	-0.000000	13.544667	0.000000	-10.114506	1412.831787	473.720306	0.172772	0.000000	-1.580303	0.000000	-11.137887	-0.000000
1.984000	13.987904	1459.595215	-472.153687	0.140357	0.000000	-0.783267	0.000000	13.590996	0.000000	-9.107483	1415.231079	471.827820	0.172974	0.000000	-1.580602	0.000000	-10.585018	-0.000000
1.985000	14.594998	1463.925415	-472.232605	0.140329	0.000000	-0.784088	-0.000000	13.445122	0.000000	-9.551015	1409.483398	471.265259	0.172604	0.000000	-1.580870	0.000000	-10.916854	-0.000000
1.986000	14.230893	1455.744873	-472.475891	0.140261	0.000000	-0.783885	0.000000	13.614537	0.000000	-9.510293	1408.849365	471.184387	0.172566	0.000000	-1.580265	0.000000	-10.829287	-0.000000
1.987000	13.063416	1458.814331	-472.394653	0.139964	0.000000	-0.782738	0.000000	13.647519	0.000000	-8.303107	1423.661011	471.304565	0.172719	0.000000	-1.579391	0.000000	-10.636507	-0.000000
1.988000	14.715733	1454.000854	-471.628235	0.139848	0.000000	-0.783009	-0.000000	13.622611	0.000000	-9.268579	1416.177490	471.184082	0.172906	0.000000	-1.579819	0.000000	-10.589047	-0.000000
1.989000	11.185533	1476.210083	-472.233063	0.142391	0.000000	-0.784549	0.000000	13.512511	0.000000	-9.268855	1427.637573	471.023438	0.172482	0.000000	-1.578409	0.000000	-10.822700	-0.000000
1.990000	14.999727	1459.612061	-471.706238	0.140022	0.000000	-0.783734	0.000000	13.370347	0.000000	-9.107208	1406.142090	471.787018	0.172105	0.000000	-1.579930	0.000000	-10.902357	-0.000000
1.991000	14.555894	1459.133301	-472.549683	0.139895	0.000000	-0.783388	0.000000	13.394943	0.000000	-9.510293	1411.870850	471.586121	0.172802	0.000000	-1.579920	0.000000	-10.687405	-0.000000
1.992000	14.751411	1454.645874	-471.667236	0.139850	0.000000	-0.783070	0.000000	13.769384	0.000000	-10.154815	1403.428467	470.742218	0.173011	0.000000	-1.579876	0.000000	-10.737839	-0.000000
